<?xml version="1.0"?>
<svg xmlns="http://www.w3.org/2000/svg" height="512px" viewBox="-78 0 511 512" width="512px"><g><link xmlns="" type="text/css" id="dark-mode" rel="stylesheet" href="" class="active-path" style=""/><style xmlns="" type="text/css" id="dark-mode-custom-style" class="active-path"/><path d="m355.800781 364.867188c-3.347656-29.453126-57.773437-82.980469-102.839843-122.699219-9.144532-8.054688-14.386719-19.664063-14.386719-31.855469v-52.605469c19.023437-1.628906 34.007812-17.632812 34.007812-37.070312 0-20.519531-16.6875-37.210938-37.207031-37.210938h-9.648438l13.964844-58.445312c1.449219-6.070313.0625-12.367188-3.804687-17.265625-3.867188-4.902344-9.664063-7.714844-15.910157-7.714844h-83.347656c-6.242187 0-12.042968 2.8125-15.910156 7.710938-3.867188 4.902343-5.253906 11.195312-3.804688 17.269531l13.96875 58.445312h-9.652343c-20.515625 0-37.207031 16.691407-37.207031 37.207031 0 19.4375 14.984374 35.445313 34.007812 37.074219v52.605469c0 12.1875-5.242188 23.800781-14.386719 31.855469-3.242187 2.863281-6.492187 5.761719-9.65625 8.613281-3.078125 2.773438-3.320312 7.515625-.546875 10.59375 2.773438 3.074219 7.515625 3.316406 10.59375.546875 3.121094-2.816406 6.328125-5.675781 9.53125-8.5 12.371094-10.902344 19.464844-26.613281 19.464844-43.109375v-59.96875c0-4.144531-3.355469-7.5-7.5-7.5h-4.300781c-12.246094 0-22.207031-9.964844-22.207031-22.210938 0-12.246093 9.960937-22.207031 22.207031-22.207031h114.144531c12.246094 0 22.207031 9.960938 22.207031 22.207031 0 12.246094-9.960937 22.210938-22.207031 22.210938h-57.070312c-4.144532 0-7.5 3.355469-7.5 7.5 0 4.140625 3.355468 7.5 7.5 7.5h45.269531v52.46875c0 16.496094 7.097656 32.207031 19.46875 43.109375 59.144531 52.125 95.726562 94.417969 97.851562 113.136719 2.648438 23.324218-18.476562 68.367187-47.089843 100.414062-17.039063 19.082032-33.917969 30.027344-46.3125 30.027344h-138.378907c-12.390625 0-29.269531-10.945312-46.3125-30.027344-28.609375-32.042968-49.734375-77.089844-47.089843-100.414062.988281-8.699219 10.941406-31.234375 66.496093-84.382813 2.992188-2.863281 3.101563-7.613281.234375-10.605469-2.863281-2.992187-7.609375-3.101562-10.605468-.234374-18.894532 18.078124-34.304688 34.355468-45.792969 48.378906-15.707031 19.179687-23.964844 33.945312-25.234375 45.152344-3.480469 30.652343 23.097656 81.066406 50.804687 112.097656 25.859375 28.957031 45.542969 35.035156 57.5 35.035156h138.378907c11.960937 0 31.644531-6.078125 57.503906-35.035156 27.703125-31.03125 54.28125-81.445313 50.804687-112.097656zm-209.496093-281.441407-14.796876-61.933593c-.519531-2.160157.394532-3.738282.984376-4.488282.59375-.746094 1.914062-2.003906 4.136718-2.003906h83.347656c2.222657 0 3.546876 1.257812 4.136719 2.003906.589844.75 1.503907 2.328125.988281 4.488282l-14.796874 61.933593zm0 0" data-original="#000000" class="active-path" fill="#E8E2DB"/><path d="m308.074219 412.164062c3.75 1.761719 8.214843.152344 9.980469-3.59375 7.761718-16.5 11.851562-31.625 10.9375-40.457031-.027344-.277343-.074219-.554687-.132813-.828125-.734375-3.359375-5.464844-16.828125-35.566406-49.0625-2.753907-2.949218-5.679688-6.015625-8.707031-9.113281-.042969-.046875-.085938-.089844-.128907-.132813-4.183593-4.183593-15.292969-15.292968-38.089843-16.804687-25.574219-1.699219-57.601563 9.398437-95.246094 32.984375-32.03125-7.816406-73.46875-20.933594-92.652344-1.65625-24.09375 24.210938-29.597656 37.851562-30.742188 43.882812-.050781.238282-.085937.484376-.113281.730469-.914062 8.832031 3.175781 23.957031 10.941407 40.457031 8.359374 17.773438 20.460937 36.144532 33.195312 50.40625 22.117188 24.769532 35.003906 26.023438 37.363281 26.023438h138.378907c2.359374 0 15.25-1.253906 37.363281-26.019531 6.007812-6.730469 11.84375-14.3125 17.347656-22.539063 2.300781-3.441406 1.375-8.101562-2.066406-10.402344-3.441407-2.304687-8.101563-1.378906-10.402344 2.0625-5.117187 7.648438-10.523437 14.675782-16.066406 20.886719-14.050781 15.734375-23.882813 20.503907-26.441407 21.011719h-137.84375c-2.558593-.507812-12.390624-5.273438-26.441406-21.011719-11.8125-13.226562-23.042968-30.289062-30.8125-46.804687-8.175781-17.371094-9.859375-28.472656-9.617187-32.230469.425781-1.882813 3.761719-12.929687 26.589843-35.871094 19.230469-19.324219 92.132813 16.601563 167.597657 22.105469 23.066406 1.78125 44.023437-.957031 49.496093-23.539062 22.652344 24.851562 27.183594 35.488281 27.917969 37.570312.148438 4-1.644531 14.988281-9.632812 31.964844-1.761719 3.75-.15625 8.214844 3.59375 9.980468zm-36.046875-94.296874c2.378906 21.921874-10.421875 25.019531-32.234375 23.507812-22.695313-1.59375-45.429688-6.0625-67.796875-11.230469 56.34375-32.011719 85.304687-25.320312 100.03125-12.277343zm0 0" data-original="#000000" class="active-path" fill="#E8E2DB"/><path d="m159.972656 19.875c-4.144531 0-7.5 3.355469-7.5 7.5v4c0 4.144531 3.355469 7.5 7.5 7.5 4.140625 0 7.5-3.355469 7.5-7.5v-4c0-4.144531-3.359375-7.5-7.5-7.5zm0 0" data-original="#000000" class="active-path" fill="#E8E2DB"/><path d="m196.636719 31.578125c-4.144531 0-7.5 3.355469-7.5 7.5v4c0 4.144531 3.355469 7.5 7.5 7.5s7.5-3.355469 7.5-7.5v-4c0-4.140625-3.355469-7.5-7.5-7.5zm0 0" data-original="#000000" class="active-path" fill="#E8E2DB"/><path d="m182.972656 60.5c-4.144531 0-7.5 3.355469-7.5 7.5v4c0 4.144531 3.355469 7.5 7.5 7.5 4.140625 0 7.5-3.355469 7.5-7.5v-4c0-4.144531-3.359375-7.5-7.5-7.5zm0 0" data-original="#000000" class="active-path" fill="#E8E2DB"/><path d="m110.136719 369.164062c4.144531 0 7.5-3.355468 7.5-7.5 0-4.140624-3.355469-7.5-7.5-7.5-11.394531 0-20.664063 9.273438-20.664063 20.667969 0 11.398438 9.269532 20.667969 20.664063 20.667969s20.667969-9.269531 20.667969-20.667969c0-4.140625-3.359376-7.5-7.5-7.5-4.144532 0-7.5 3.359375-7.5 7.5 0 3.125-2.542969 5.667969-5.667969 5.667969s-5.664063-2.542969-5.664063-5.667969 2.539063-5.667969 5.664063-5.667969zm0 0" data-original="#000000" class="active-path" fill="#E8E2DB"/><path d="m183.289062 442.117188c-4.550781 0-8.25-3.699219-8.25-8.25 0-4.140626-3.359374-7.5-7.5-7.5-4.144531 0-7.5 3.359374-7.5 7.5 0 12.820312 10.429688 23.25 23.25 23.25 12.820313 0 23.25-10.429688 23.25-23.25 0-12.820313-10.429687-23.25-23.25-23.25-4.144531 0-7.5 3.359374-7.5 7.5 0 4.144531 3.355469 7.5 7.5 7.5 4.546876 0 8.25 3.703124 8.25 8.25 0 4.550781-3.703124 8.25-8.25 8.25zm0 0" data-original="#000000" class="active-path" fill="#E8E2DB"/></g> </svg>
